<?xml version="1.0" encoding="UTF-8"?>
<!-- Created with EazyDraw for Mac ( http://www.eazydraw.com/ ) -->

<svg
    version="1.1"
    xmlns:dc="http://purl.org/dc/elements/1.1/"
    xmlns:cc="http://creativecommons.org/ns#"
    xmlns:rdf="http://www.w3.org/1999/02/22-rdf-syntax-ns#"
    xmlns:svg="http://www.w3.org/2000/svg"
    xmlns:xlink="http://www.w3.org/1999/xlink"
    xmlns="http://www.w3.org/2000/svg"
    width="512"
    height="512"
    viewBox="0, 0, 512, 512"
    preserveAspectRatio="none"
    id="svg2">
   <defs
       id="defs_A7DAC902"/>
   <metadata
       id="metadata7">
      <rdf:RDF>
         <cc:Work
             rdf:about="">
            <dc:format>image/svg+xml</dc:format>
            <dc:type rdf:resource="http://purl.org/dc/dcmitype/StillImage"/>
            <dc:title></dc:title>
         </cc:Work>
      </rdf:RDF>
   </metadata>
   <g
       id="layer_Paper"
       style="fill:#000000;fill-opacity:1;stroke:#000000;stroke-opacity:1;fill-rule:nonzero;stroke-linecap:square;stroke-linejoin:miter;stroke-width:1;stroke-miterlimit:10">
      <circle
          style="fill:#005C83;stroke:none"
          id="F2EF15C1"
          cx="254.993874712"
          cy="254.166128179"
          r="253.68938075"/>
      <path
          style="fill:#00263F;stroke:none"
          id="B2FF15C1"
          d="M508.009354981,272.650766098 L372.589785714,137.231196831 L137.39796371,416.024883618 L227.771819083,506.398738992 C236.716350358,507.353046949 245.795654095,507.855470764 254.993874712,507.855470764 C388.885362079,507.855470764 498.539607489,404.128240815 508.009354981,272.650766098
z"/>
      <polygon
          style="fill:#FFFFFF;stroke:none"
          id="ED0025C1"
          points="327.664970648,92.3073727396 137.39796371,92.3073727396 137.39796371,416.024883618 372.589785714,416.024883618 372.589785714,137.231196831"/>
      <polygon
          style="fill:#E0E0E0;stroke:none"
          id="AD1025C1"
          points="372.589785714,137.231196831 327.664970648,92.3073727396 254.94630796,92.3073727396 254.94630796,416.024883618 372.589785714,416.024883618"/>
      <polygon
          style="fill:#C0C0C0;stroke:none"
          id="B14025C1"
          points="327.664970648,137.231196831 372.589785714,137.231196831 327.664970648,92.3073727396"/>
      <rect
          style="fill:#E0E0E0;stroke:none"
          id="4B4025C1"
          x="158.869397248"
          y="192.91402558"
          width="130.313080273"
          height="28.7382458397"/>
      <rect
          style="fill:#C0C0C0;stroke:none"
          id="415025C1"
          x="254.944326012"
          y="192.91402558"
          width="34.2361695611"
          height="28.7382458397"/>
      <rect
          style="fill:#FF6838;stroke:none"
          id="A46025C1"
          x="158.869397248"
          y="150.797630815"
          width="191.257980933"
          height="28.7382458397"/>
      <rect
          style="fill:#AE4E32;stroke:none"
          id="697025C1"
          x="254.944326012"
          y="150.797630815"
          width="95.1830521691"
          height="28.7382458397"/>
      <rect
          style="fill:#35CCFF;stroke:none"
          id="528025C1"
          x="303.056113444"
          y="192.91402558"
          width="47.0712647375"
          height="28.7382458397"/>
      <rect
          style="fill:#E0E0E0;stroke:none"
          id="D79025C1"
          x="158.869397248"
          y="235.862838501"
          width="130.313080273"
          height="28.7382458397"/>
      <rect
          style="fill:#C0C0C0;stroke:none"
          id="85A025C1"
          x="254.944326012"
          y="235.862838501"
          width="34.2361695611"
          height="28.7382458397"/>
      <rect
          style="fill:#35CCFF;stroke:none"
          id="D8A025C1"
          x="303.056113444"
          y="235.862838501"
          width="47.0712647375"
          height="28.7382458397"/>
      <rect
          style="fill:#E0E0E0;stroke:none"
          id="36B025C1"
          x="158.869397248"
          y="278.801741681"
          width="130.313080273"
          height="28.7382458397"/>
      <rect
          style="fill:#C0C0C0;stroke:none"
          id="D1D025C1"
          x="254.944326012"
          y="278.801741681"
          width="34.2361695611"
          height="28.7382458397"/>
      <rect
          style="fill:#35CCFF;stroke:none"
          id="86D025C1"
          x="303.056113444"
          y="278.801741681"
          width="47.0712647375"
          height="28.7382458397"/>
      <rect
          style="fill:#E0E0E0;stroke:none"
          id="2AD025C1"
          x="158.869397248"
          y="321.740644862"
          width="130.313080273"
          height="28.7382458397"/>
      <rect
          style="fill:#C0C0C0;stroke:none"
          id="14E025C1"
          x="254.944326012"
          y="321.740644862"
          width="34.2361695611"
          height="28.7382458397"/>
      <rect
          style="fill:#35CCFF;stroke:none"
          id="3CE025C1"
          x="303.056113444"
          y="321.740644862"
          width="47.0712647375"
          height="28.7382458397"/>
      <rect
          style="fill:#FFB344;stroke:none"
          id="C0F025C1"
          x="254.944326012"
          y="363.36155263"
          width="95.1830521691"
          height="28.7382458397"/>
      <rect
          style="fill:#D0D0D0;stroke:none"
          id="2CC95FC1"
          x="163.150912383"
          y="204.296397042"
          width="83.9989196675"
          height="6.833756665887"/>
      <rect
          style="fill:#D0D0D0;stroke:none"
          id="3CC95FC1"
          x="163.150912383"
          y="247.583833349"
          width="83.9989196675"
          height="6.833756665887"/>
      <rect
          style="fill:#D0D0D0;stroke:none"
          id="4CC95FC1"
          x="163.150912383"
          y="290.227844407"
          width="83.9989196675"
          height="6.833756665887"/>
      <rect
          style="fill:#D0D0D0;stroke:none"
          id="5CC95FC1"
          x="163.150912383"
          y="333.049961696"
          width="83.9989196675"
          height="6.833756665887"/>
      <path
          style="fill:#D0D0D0;stroke:none"
          id="7CC95FC1"
          d="M245.19343703,370.563111179 C246.679898022,370.563111179 247.885913373,369.357095827 247.885913373,367.870634836 L247.885913373,366.030396128 C247.885913373,360.454185461 242.613931722,355.908587748 236.057647775,355.731203403
L236.057647775,355.027611867 C236.057647775,353.541150876 234.851632424,352.335135524 233.365171432,352.335135524 C231.87871044,352.335135524 230.672695089,353.541150876 230.672695089,355.027611867 L230.672695089,355.731203403
C224.116411142,355.908587748 218.844429491,360.453194487 218.844429491,366.030396128 L218.844429491,369.70988257 C218.844429491,375.286093236 224.116411142,379.831690949 230.672695089,380.00808432 L230.672695089,393.549743955
C227.142845721,393.396142985 224.230373151,391.211045328 224.230373151,388.634512942 L224.230373151,386.794274234 C224.230373151,385.307813243 223.0243578,384.101797891 221.537896808,384.101797891 C220.051435816,384.101797891 218.845420465,385.307813243 218.845420465,386.794274234
L218.845420465,388.634512942 C218.845420465,394.210723609 224.117402116,398.756321322 230.673686063,398.932714693 L230.673686063,399.636306229 C230.673686063,401.12276722 231.879701414,402.328782572 233.366162406,402.328782572
C234.852623398,402.328782572 236.058638749,401.12276722 236.058638749,399.636306229 L236.058638749,398.932714693 C242.614922696,398.755330348 247.886904347,394.210723609 247.886904347,388.634512942 L247.886904347,384.9550265
C247.886904347,379.378815834 242.614922696,374.833218121 236.058638749,374.655833776 L236.058638749,361.114174141 C239.588488117,361.267775111 242.500960687,363.452872768 242.500960687,366.029405154 L242.500960687,367.869643862
C242.501951661,369.357095827 243.705985064,370.563111179 245.19343703,370.563111179 z M224.229382177,369.710873543 L224.229382177,366.031387102 C224.229382177,363.454854716 227.141854747,361.268766085 230.671704115,361.116156089
L230.671704115,374.62709553 C227.141854747,374.472503587 224.229382177,372.287405929 224.229382177,369.710873543 z M242.501951661,384.956017474 L242.501951661,388.635503916 C242.501951661,391.212036302 239.589479091,393.397133959 236.059629723,393.550734929
L236.059629723,380.039795488 C239.588488117,380.193396457 242.501951661,382.380476063 242.501951661,384.956017474 z"/>
   </g>
</svg>
